ffmpeg started on 2025-06-06 at 18:49:55
Report written to "D:\Convert\FFMetrics\reports\psnr_report-6.txt"
Log level: 32
Command line:
ffmpeg -hide_banner -nostdin -i "G:\\\xc0\xed\xe8\xec\xe5\\\xce\xed\xe3\xee\xe8\xed\xe3\xe8\\!_36_\xce\xf1\xe5\xed\xfc_2024\\DreamCast\\\xcf\xf3\xed\xe8\xf0\xf3 - \xec\xe8\xeb\xe0\xff \xf1\xeb\xe8\xe7\xfc\\[DC] Puniru wa Kawaii Slime - 06_Telegram_HEVC.mkv" -i "G:\\\xc0\xed\xe8\xec\xe5\\\xce\xed\xe3\xee\xe8\xed\xe3\xe8\\!_36_\xce\xf1\xe5\xed\xfc_2024\\DreamCast\\\xcf\xf3\xed\xe8\xf0\xf3 - \xec\xe8\xeb\xe0\xff \xf1\xeb\xe8\xe7\xfc\\[DC] Puniru wa Kawaii Slime - 06_Telegram.mp4" -lavfi "[0:v]settb=AVTB,setpts=PTS-STARTPTS,format=pix_fmts=yuv420p10,fps=24000/1001,scale=1920:1080:flags=bicubic[main];[1:v]settb=AVTB,setpts=PTS-STARTPTS,format=pix_fmts=yuv420p,fps=24000/1001,scale=1920:1080:flags=bicubic[ref];[main][ref]psnr=eof_action=endall:stats_file='D\\:/Convert/FFMetrics/logs/psnr_logfile-6.txt'" -f null -
Input #0, matroska,webm, from 'G:\Аниме\Онгоинги\!_36_Осень_2024\DreamCast\Пуниру - милая слизь\[DC] Puniru wa Kawaii Slime - 06_Telegram_HEVC.mkv':
  Metadata:
    COMPATIBLE_BRANDS: isomiso2avc1mp41
    MAJOR_BRAND     : isom
    MINOR_VERSION   : 512
    ENCODER         : Lavf61.7.100
  Duration: 00:23:56.63, start: -0.021000, bitrate: 1074 kb/s
  Stream #0:0: Video: hevc (Main 10), yuv420p10le(tv, bt709, progressive), 1920x1080 [SAR 1:1 DAR 16:9], 23.98 fps, 23.98 tbr, 1k tbn (default)
      Metadata:
        HANDLER_NAME    : VideoHandler
        VENDOR_ID       : [0][0][0][0]
        ENCODER         : Lavc61.19.100 libx265
        BPS             : 875722
        DURATION        : 00:23:56.476708333
        NUMBER_OF_FRAMES: 34441
        NUMBER_OF_BYTES : 157244315
        _STATISTICS_WRITING_APP: mkvpropedit v66.0.0 ('Josie') 64-bit
        _STATISTICS_WRITING_DATE_UTC: 2025-06-03 12:43:51
        _STATISTICS_TAGS: BPS DURATION NUMBER_OF_FRAMES NUMBER_OF_BYTES
  Stream #0:1: Audio: aac (LC), 48000 Hz, stereo, fltp (default)
      Metadata:
        HANDLER_NAME    : SoundHandler
        VENDOR_ID       : [0][0][0][0]
        ENCODER         : Lavc61.19.100 aac
        BPS             : 194395
        DURATION        : 00:23:56.629000000
        NUMBER_OF_FRAMES: 67343
        NUMBER_OF_BYTES : 34909230
        _STATISTICS_WRITING_APP: mkvpropedit v66.0.0 ('Josie') 64-bit
        _STATISTICS_WRITING_DATE_UTC: 2025-06-03 12:43:51
        _STATISTICS_TAGS: BPS DURATION NUMBER_OF_FRAMES NUMBER_OF_BYTES
Input #1, mov,mp4,m4a,3gp,3g2,mj2, from 'G:\Аниме\Онгоинги\!_36_Осень_2024\DreamCast\Пуниру - милая слизь\[DC] Puniru wa Kawaii Slime - 06_Telegram.mp4':
  Metadata:
    major_brand     : isom
    minor_version   : 512
    compatible_brands: isomiso2avc1mp41
    encoder         : Lavf61.1.100
  Duration: 00:23:56.59, start: 0.000000, bitrate: 3372 kb/s
  Stream #1:0[0x1](und): Video: h264 (High) (avc1 / 0x31637661), yuv420p(tv, bt709, progressive), 1920x1080 [SAR 1:1 DAR 16:9], 3225 kb/s, 23.98 fps, 23.98 tbr, 24k tbn (default)
      Metadata:
        handler_name    : VideoHandler
        vendor_id       : [0][0][0][0]
        encoder         : Lavc61.3.100 h264_qsv
  Stream #1:1[0x2](und): Audio: aac (HE-AACv2) (mp4a / 0x6134706D), 48000 Hz, stereo, fltp, 144 kb/s (default)
      Metadata:
        handler_name    : SoundHandler
        vendor_id       : [0][0][0][0]
Stream mapping:
  Stream #0:0 (hevc) -> settb:default
  Stream #1:0 (h264) -> settb:default
  psnr:default -> Stream #0:0 (wrapped_avframe)
  Stream #0:1 -> #0:1 (aac (native) -> pcm_s16le (native))
Output #0, null, to 'pipe:':
  Metadata:
    COMPATIBLE_BRANDS: isomiso2avc1mp41
    MAJOR_BRAND     : isom
    MINOR_VERSION   : 512
    encoder         : Lavf61.7.100
  Stream #0:0: Video: wrapped_avframe, yuv420p10le(tv, bt709, progressive), 1920x1080 [SAR 1:1 DAR 16:9], q=2-31, 200 kb/s, 23.98 fps, 23.98 tbn
      Metadata:
        encoder         : Lavc61.19.100 wrapped_avframe
  Stream #0:1: Audio: pcm_s16le, 48000 Hz, stereo, s16, 1536 kb/s (default)
      Metadata:
        HANDLER_NAME    : SoundHandler
        VENDOR_ID       : [0][0][0][0]
        _STATISTICS_TAGS: BPS DURATION NUMBER_OF_FRAMES NUMBER_OF_BYTES
        BPS             : 194395
        DURATION        : 00:23:56.629000000
        NUMBER_OF_FRAMES: 67343
        NUMBER_OF_BYTES : 34909230
        _STATISTICS_WRITING_APP: mkvpropedit v66.0.0 ('Josie') 64-bit
        _STATISTICS_WRITING_DATE_UTC: 2025-06-03 12:43:51
        encoder         : Lavc61.19.100 pcm_s16le
frame=  174 fps=0.0 q=-0.0 size=N/A time=00:00:07.25 bitrate=N/A speed=14.2x    frame=  391 fps=381 q=-0.0 size=N/A time=00:00:16.30 bitrate=N/A speed=15.9x    frame=  550 fps=357 q=-0.0 size=N/A time=00:00:22.93 bitrate=N/A speed=14.9x    frame=  728 fps=354 q=-0.0 size=N/A time=00:00:30.36 bitrate=N/A speed=14.8x    frame=  937 fps=364 q=-0.0 size=N/A time=00:00:39.08 bitrate=N/A speed=15.2x    frame= 1162 fps=377 q=-0.0 size=N/A time=00:00:48.46 bitrate=N/A speed=15.7x    frame= 1350 fps=375 q=-0.0 size=N/A time=00:00:56.30 bitrate=N/A speed=15.6x    frame= 1513 fps=367 q=-0.0 size=N/A time=00:01:03.10 bitrate=N/A speed=15.3x    frame= 1677 fps=362 q=-0.0 size=N/A time=00:01:09.94 bitrate=N/A speed=15.1x    frame= 1866 fps=362 q=-0.0 size=N/A time=00:01:17.82 bitrate=N/A speed=15.1x    frame= 2076 fps=366 q=-0.0 size=N/A time=00:01:26.58 bitrate=N/A speed=15.3x    frame= 2298 fps=372 q=-0.0 size=N/A time=00:01:35.84 bitrate=N/A speed=15.5x    frame= 2547 fps=380 q=-0.0 size=N/A time=00:01:46.23 bitrate=N/A speed=15.9x    frame= 2801 fps=388 q=-0.0 size=N/A time=00:01:56.82 bitrate=N/A speed=16.2x    frame= 3066 fps=397 q=-0.0 size=N/A time=00:02:07.87 bitrate=N/A speed=16.6x    frame= 3333 fps=404 q=-0.0 size=N/A time=00:02:19.01 bitrate=N/A speed=16.9x    frame= 3617 fps=413 q=-0.0 size=N/A time=00:02:30.85 bitrate=N/A speed=17.2x    frame= 3885 fps=419 q=-0.0 size=N/A time=00:02:42.03 bitrate=N/A speed=17.5x    frame= 4156 fps=424 q=-0.0 size=N/A time=00:02:53.33 bitrate=N/A speed=17.7x    frame= 4437 fps=431 q=-0.0 size=N/A time=00:03:05.05 bitrate=N/A speed=  18x    frame= 4725 fps=437 q=-0.0 size=N/A time=00:03:17.07 bitrate=N/A speed=18.2x    frame= 4989 fps=440 q=-0.0 size=N/A time=00:03:28.08 bitrate=N/A speed=18.4x    frame= 5199 fps=439 q=-0.0 size=N/A time=00:03:36.84 bitrate=N/A speed=18.3x    frame= 5419 fps=438 q=-0.0 size=N/A time=00:03:46.01 bitrate=N/A speed=18.3x    frame= 5666 fps=440 q=-0.0 size=N/A time=00:03:56.31 bitrate=N/A speed=18.3x    frame= 5918 fps=442 q=-0.0 size=N/A time=00:04:06.82 bitrate=N/A speed=18.4x    frame= 6196 fps=445 q=-0.0 size=N/A time=00:04:18.42 bitrate=N/A speed=18.6x    frame= 6459 fps=448 q=-0.0 size=N/A time=00:04:29.39 bitrate=N/A speed=18.7x    frame= 6716 fps=449 q=-0.0 size=N/A time=00:04:40.11 bitrate=N/A speed=18.7x    frame= 6951 fps=450 q=-0.0 size=N/A time=00:04:49.91 bitrate=N/A speed=18.8x    frame= 7232 fps=453 q=-0.0 size=N/A time=00:05:01.63 bitrate=N/A speed=18.9x    frame= 7513 fps=456 q=-0.0 size=N/A time=00:05:13.35 bitrate=N/A speed=  19x    frame= 7782 fps=457 q=-0.0 size=N/A time=00:05:24.57 bitrate=N/A speed=19.1x    frame= 8009 fps=457 q=-0.0 size=N/A time=00:05:34.04 bitrate=N/A speed=19.1x    frame= 8290 fps=460 q=-0.0 size=N/A time=00:05:45.76 bitrate=N/A speed=19.2x    frame= 8515 fps=459 q=-0.0 size=N/A time=00:05:55.14 bitrate=N/A speed=19.1x    frame= 8766 fps=460 q=-0.0 size=N/A time=00:06:05.61 bitrate=N/A speed=19.2x    frame= 9013 fps=460 q=-0.0 size=N/A time=00:06:15.91 bitrate=N/A speed=19.2x    frame= 9282 fps=462 q=-0.0 size=N/A time=00:06:27.13 bitrate=N/A speed=19.3x    frame= 9448 fps=458 q=-0.0 size=N/A time=00:06:34.06 bitrate=N/A speed=19.1x    frame= 9728 fps=460 q=-0.0 size=N/A time=00:06:45.73 bitrate=N/A speed=19.2x    frame=10017 fps=463 q=-0.0 size=N/A time=00:06:57.79 bitrate=N/A speed=19.3x    frame=10261 fps=463 q=-0.0 size=N/A time=00:07:07.96 bitrate=N/A speed=19.3x    frame=10535 fps=465 q=-0.0 size=N/A time=00:07:19.39 bitrate=N/A speed=19.4x    frame=10796 fps=465 q=-0.0 size=N/A time=00:07:30.28 bitrate=N/A speed=19.4x    frame=11083 fps=467 q=-0.0 size=N/A time=00:07:42.25 bitrate=N/A speed=19.5x    frame=11329 fps=468 q=-0.0 size=N/A time=00:07:52.51 bitrate=N/A speed=19.5x    frame=11577 fps=468 q=-0.0 size=N/A time=00:08:02.85 bitrate=N/A speed=19.5x    frame=11834 fps=468 q=-0.0 size=N/A time=00:08:13.57 bitrate=N/A speed=19.5x    frame=12109 fps=470 q=-0.0 size=N/A time=00:08:25.04 bitrate=N/A speed=19.6x    frame=12383 fps=471 q=-0.0 size=N/A time=00:08:36.47 bitrate=N/A speed=19.6x    frame=12662 fps=472 q=-0.0 size=N/A time=00:08:48.11 bitrate=N/A speed=19.7x    frame=12912 fps=473 q=-0.0 size=N/A time=00:08:58.53 bitrate=N/A speed=19.7x    frame=13189 fps=474 q=-0.0 size=N/A time=00:09:10.09 bitrate=N/A speed=19.8x    frame=13483 fps=476 q=-0.0 size=N/A time=00:09:22.35 bitrate=N/A speed=19.8x    frame=13752 fps=476 q=-0.0 size=N/A time=00:09:33.57 bitrate=N/A speed=19.9x    frame=14002 fps=476 q=-0.0 size=N/A time=00:09:44.00 bitrate=N/A speed=19.9x    frame=14195 fps=475 q=-0.0 size=N/A time=00:09:52.04 bitrate=N/A speed=19.8x    frame=14455 fps=475 q=-0.0 size=N/A time=00:10:02.89 bitrate=N/A speed=19.8x    frame=14720 fps=476 q=-0.0 size=N/A time=00:10:13.94 bitrate=N/A speed=19.9x    frame=15010 fps=477 q=-0.0 size=N/A time=00:10:26.04 bitrate=N/A speed=19.9x    frame=15267 fps=478 q=-0.0 size=N/A time=00:10:36.76 bitrate=N/A speed=19.9x    frame=15440 fps=475 q=-0.0 size=N/A time=00:10:43.97 bitrate=N/A speed=19.8x    frame=15731 fps=477 q=-0.0 size=N/A time=00:10:56.11 bitrate=N/A speed=19.9x    frame=15996 fps=477 q=-0.0 size=N/A time=00:11:07.16 bitrate=N/A speed=19.9x    frame=16268 fps=478 q=-0.0 size=N/A time=00:11:18.51 bitrate=N/A speed=19.9x    frame=16517 fps=478 q=-0.0 size=N/A time=00:11:28.89 bitrate=N/A speed=19.9x    frame=16684 fps=476 q=-0.0 size=N/A time=00:11:35.86 bitrate=N/A speed=19.8x    frame=16899 fps=475 q=-0.0 size=N/A time=00:11:44.82 bitrate=N/A speed=19.8x    frame=17181 fps=476 q=-0.0 size=N/A time=00:11:56.59 bitrate=N/A speed=19.9x    frame=17448 fps=477 q=-0.0 size=N/A time=00:12:07.72 bitrate=N/A speed=19.9x    frame=17615 fps=475 q=-0.0 size=N/A time=00:12:14.69 bitrate=N/A speed=19.8x    frame=17753 fps=472 q=-0.0 size=N/A time=00:12:20.44 bitrate=N/A speed=19.7x    frame=18021 fps=472 q=-0.0 size=N/A time=00:12:31.62 bitrate=N/A speed=19.7x    frame=18282 fps=473 q=-0.0 size=N/A time=00:12:42.51 bitrate=N/A speed=19.7x    frame=18547 fps=473 q=-0.0 size=N/A time=00:12:53.56 bitrate=N/A speed=19.7x    frame=18817 fps=474 q=-0.0 size=N/A time=00:13:04.82 bitrate=N/A speed=19.8x    frame=19079 fps=474 q=-0.0 size=N/A time=00:13:15.75 bitrate=N/A speed=19.8x    frame=19347 fps=475 q=-0.0 size=N/A time=00:13:26.93 bitrate=N/A speed=19.8x    frame=19614 fps=475 q=-0.0 size=N/A time=00:13:38.06 bitrate=N/A speed=19.8x    frame=19919 fps=477 q=-0.0 size=N/A time=00:13:50.78 bitrate=N/A speed=19.9x    frame=20123 fps=476 q=-0.0 size=N/A time=00:13:59.29 bitrate=N/A speed=19.8x    frame=20409 fps=477 q=-0.0 size=N/A time=00:14:11.22 bitrate=N/A speed=19.9x    frame=20659 fps=477 q=-0.0 size=N/A time=00:14:21.65 bitrate=N/A speed=19.9x    frame=20922 fps=477 q=-0.0 size=N/A time=00:14:32.62 bitrate=N/A speed=19.9x    frame=21185 fps=478 q=-0.0 size=N/A time=00:14:43.59 bitrate=N/A speed=19.9x    frame=21433 fps=478 q=-0.0 size=N/A time=00:14:53.93 bitrate=N/A speed=19.9x    frame=21668 fps=477 q=-0.0 size=N/A time=00:15:03.73 bitrate=N/A speed=19.9x    frame=21904 fps=477 q=-0.0 size=N/A time=00:15:13.57 bitrate=N/A speed=19.9x    frame=22144 fps=477 q=-0.0 size=N/A time=00:15:23.58 bitrate=N/A speed=19.9x    frame=22365 fps=477 q=-0.0 size=N/A time=00:15:32.80 bitrate=N/A speed=19.9x    frame=22618 fps=477 q=-0.0 size=N/A time=00:15:43.35 bitrate=N/A speed=19.9x    frame=22864 fps=477 q=-0.0 size=N/A time=00:15:53.61 bitrate=N/A speed=19.9x    frame=23107 fps=477 q=-0.0 size=N/A time=00:16:03.75 bitrate=N/A speed=19.9x    frame=23367 fps=477 q=-0.0 size=N/A time=00:16:14.59 bitrate=N/A speed=19.9x    frame=23654 fps=478 q=-0.0 size=N/A time=00:16:26.61 bitrate=N/A speed=19.9x    frame=23916 fps=478 q=-0.0 size=N/A time=00:16:37.49 bitrate=N/A speed=19.9x    frame=24180 fps=478 q=-0.0 size=N/A time=00:16:48.50 bitrate=N/A speed=  20x    frame=24410 fps=478 q=-0.0 size=N/A time=00:16:58.10 bitrate=N/A speed=19.9x    frame=24682 fps=479 q=-0.0 size=N/A time=00:17:09.44 bitrate=N/A speed=  20x    frame=24940 fps=479 q=-0.0 size=N/A time=00:17:20.20 bitrate=N/A speed=  20x    frame=25224 fps=479 q=-0.0 size=N/A time=00:17:32.05 bitrate=N/A speed=  20x    frame=25446 fps=479 q=-0.0 size=N/A time=00:17:41.31 bitrate=N/A speed=  20x    frame=25652 fps=478 q=-0.0 size=N/A time=00:17:49.90 bitrate=N/A speed=19.9x    frame=25890 fps=478 q=-0.0 size=N/A time=00:17:59.82 bitrate=N/A speed=19.9x    frame=26175 fps=479 q=-0.0 size=N/A time=00:18:11.71 bitrate=N/A speed=  20x    frame=26399 fps=478 q=-0.0 size=N/A time=00:18:21.05 bitrate=N/A speed=  20x    frame=26661 fps=479 q=-0.0 size=N/A time=00:18:31.98 bitrate=N/A speed=  20x    frame=26926 fps=479 q=-0.0 size=N/A time=00:18:43.03 bitrate=N/A speed=  20x    frame=27200 fps=479 q=-0.0 size=N/A time=00:18:54.46 bitrate=N/A speed=  20x    frame=27438 fps=479 q=-0.0 size=N/A time=00:19:04.39 bitrate=N/A speed=  20x    frame=27662 fps=479 q=-0.0 size=N/A time=00:19:13.73 bitrate=N/A speed=  20x    frame=27908 fps=479 q=-0.0 size=N/A time=00:19:23.99 bitrate=N/A speed=  20x    frame=28163 fps=479 q=-0.0 size=N/A time=00:19:34.63 bitrate=N/A speed=  20x    frame=28417 fps=479 q=-0.0 size=N/A time=00:19:45.22 bitrate=N/A speed=  20x    frame=28701 fps=480 q=-0.0 size=N/A time=00:19:57.07 bitrate=N/A speed=  20x    frame=28978 fps=480 q=-0.0 size=N/A time=00:20:08.62 bitrate=N/A speed=  20x    frame=29263 fps=481 q=-0.0 size=N/A time=00:20:20.51 bitrate=N/A speed=20.1x    frame=29525 fps=481 q=-0.0 size=N/A time=00:20:31.43 bitrate=N/A speed=20.1x    frame=29799 fps=481 q=-0.0 size=N/A time=00:20:42.86 bitrate=N/A speed=20.1x    frame=30083 fps=482 q=-0.0 size=N/A time=00:20:54.71 bitrate=N/A speed=20.1x    frame=30346 fps=482 q=-0.0 size=N/A time=00:21:05.68 bitrate=N/A speed=20.1x    frame=30568 fps=482 q=-0.0 size=N/A time=00:21:14.94 bitrate=N/A speed=20.1x    frame=30821 fps=482 q=-0.0 size=N/A time=00:21:25.49 bitrate=N/A speed=20.1x    frame=31091 fps=482 q=-0.0 size=N/A time=00:21:36.75 bitrate=N/A speed=20.1x    frame=31352 fps=483 q=-0.0 size=N/A time=00:21:47.63 bitrate=N/A speed=20.1x    frame=31624 fps=483 q=-0.0 size=N/A time=00:21:58.98 bitrate=N/A speed=20.1x    frame=31893 fps=483 q=-0.0 size=N/A time=00:22:10.20 bitrate=N/A speed=20.2x    frame=32118 fps=483 q=-0.0 size=N/A time=00:22:19.58 bitrate=N/A speed=20.1x    frame=32327 fps=482 q=-0.0 size=N/A time=00:22:28.30 bitrate=N/A speed=20.1x    frame=32562 fps=482 q=-0.0 size=N/A time=00:22:38.10 bitrate=N/A speed=20.1x    frame=32764 fps=481 q=-0.0 size=N/A time=00:22:46.53 bitrate=N/A speed=20.1x    frame=32967 fps=481 q=-0.0 size=N/A time=00:22:54.99 bitrate=N/A speed=  20x    frame=33206 fps=480 q=-0.0 size=N/A time=00:23:05.00 bitrate=N/A speed=  20x    frame=33420 fps=480 q=-0.0 size=N/A time=00:23:13.89 bitrate=N/A speed=  20x    frame=33609 fps=479 q=-0.0 size=N/A time=00:23:21.77 bitrate=N/A speed=  20x    frame=33757 fps=478 q=-0.0 size=N/A time=00:23:27.94 bitrate=N/A speed=19.9x    frame=33947 fps=477 q=-0.0 size=N/A time=00:23:35.87 bitrate=N/A speed=19.9x    frame=34188 fps=477 q=-0.0 size=N/A time=00:23:45.92 bitrate=N/A speed=19.9x    frame=34413 fps=477 q=-0.0 size=N/A time=00:23:55.30 bitrate=N/A speed=19.9x    [Parsed_psnr_10 @ 000002178bd39300] PSNR y:48.852085 u:49.965646 v:49.746952 average:49.161330 min:41.174083 max:inf
[out#0/null @ 00000217893f4440] video:14799KiB audio:269372KiB subtitle:0KiB other streams:0KiB global headers:0KiB muxing overhead: unknown
frame=34441 fps=477 q=-0.0 Lsize=N/A time=00:23:56.47 bitrate=N/A speed=19.9x    
